<svg width="553" height="106" viewBox="0 0 553 106" fill="none" xmlns="http://www.w3.org/2000/svg">
<rect width="553" height="106" fill="white"/>
<path d="M61.4453 78.125C61.4453 75.7344 61.0703 73.625 60.3203 71.7969C59.6172 69.9219 58.3516 68.2344 56.5234 66.7344C54.7422 65.2344 52.2578 63.8047 49.0703 62.4453C45.9297 61.0859 41.9453 59.7031 37.1172 58.2969C32.0547 56.7969 27.4844 55.1328 23.4062 53.3047C19.3281 51.4297 15.8359 49.2969 12.9297 46.9062C10.0234 44.5156 7.79688 41.7734 6.25 38.6797C4.70312 35.5859 3.92969 32.0469 3.92969 28.0625C3.92969 24.0781 4.75 20.3984 6.39062 17.0234C8.03125 13.6484 10.375 10.7187 13.4219 8.23438C16.5156 5.70312 20.1953 3.73438 24.4609 2.32812C28.7266 0.921875 33.4844 0.21875 38.7344 0.21875C46.4219 0.21875 52.9375 1.69531 58.2812 4.64844C63.6719 7.55469 67.7734 11.375 70.5859 16.1094C73.3984 20.7969 74.8047 25.8125 74.8047 31.1562H61.3047C61.3047 27.3125 60.4844 23.9141 58.8438 20.9609C57.2031 17.9609 54.7188 15.6172 51.3906 13.9297C48.0625 12.1953 43.8438 11.3281 38.7344 11.3281C33.9062 11.3281 29.9219 12.0547 26.7812 13.5078C23.6406 14.9609 21.2969 16.9297 19.75 19.4141C18.25 21.8984 17.5 24.7344 17.5 27.9219C17.5 30.0781 17.9453 32.0469 18.8359 33.8281C19.7734 35.5625 21.2031 37.1797 23.125 38.6797C25.0938 40.1797 27.5781 41.5625 30.5781 42.8281C33.625 44.0938 37.2578 45.3125 41.4766 46.4844C47.2891 48.125 52.3047 49.9531 56.5234 51.9688C60.7422 53.9844 64.2109 56.2578 66.9297 58.7891C69.6953 61.2734 71.7344 64.1094 73.0469 67.2969C74.4062 70.4375 75.0859 74 75.0859 77.9844C75.0859 82.1562 74.2422 85.9297 72.5547 89.3047C70.8672 92.6797 68.4531 95.5625 65.3125 97.9531C62.1719 100.344 58.3984 102.195 53.9922 103.508C49.6328 104.773 44.7578 105.406 39.3672 105.406C34.6328 105.406 29.9688 104.75 25.375 103.438C20.8281 102.125 16.6797 100.156 12.9297 97.5312C9.22656 94.9062 6.25 91.6719 4 87.8281C1.79688 83.9375 0.695312 79.4375 0.695312 74.3281H14.1953C14.1953 77.8438 14.875 80.8672 16.2344 83.3984C17.5938 85.8828 19.4453 87.9453 21.7891 89.5859C24.1797 91.2266 26.875 92.4453 29.875 93.2422C32.9219 93.9922 36.0859 94.3672 39.3672 94.3672C44.1016 94.3672 48.1094 93.7109 51.3906 92.3984C54.6719 91.0859 57.1562 89.2109 58.8438 86.7734C60.5781 84.3359 61.4453 81.4531 61.4453 78.125ZM159.25 45.6406V56.6797H103.844V45.6406H159.25ZM105.953 1.625V104H92.3828V1.625H105.953ZM171.062 1.625V104H157.562V1.625H171.062ZM274 49.5781V56.0469C274 63.7344 273.039 70.625 271.117 76.7188C269.195 82.8125 266.43 87.9922 262.82 92.2578C259.211 96.5234 254.875 99.7812 249.812 102.031C244.797 104.281 239.172 105.406 232.938 105.406C226.891 105.406 221.336 104.281 216.273 102.031C211.258 99.7812 206.898 96.5234 203.195 92.2578C199.539 87.9922 196.703 82.8125 194.688 76.7188C192.672 70.625 191.664 63.7344 191.664 56.0469V49.5781C191.664 41.8906 192.648 35.0234 194.617 28.9766C196.633 22.8828 199.469 17.7031 203.125 13.4375C206.781 9.125 211.117 5.84375 216.133 3.59375C221.195 1.34375 226.75 0.21875 232.797 0.21875C239.031 0.21875 244.656 1.34375 249.672 3.59375C254.734 5.84375 259.07 9.125 262.68 13.4375C266.336 17.7031 269.125 22.8828 271.047 28.9766C273.016 35.0234 274 41.8906 274 49.5781ZM260.57 56.0469V49.4375C260.57 43.3438 259.938 37.9531 258.672 33.2656C257.453 28.5781 255.648 24.6406 253.258 21.4531C250.867 18.2656 247.938 15.8516 244.469 14.2109C241.047 12.5703 237.156 11.75 232.797 11.75C228.578 11.75 224.758 12.5703 221.336 14.2109C217.961 15.8516 215.055 18.2656 212.617 21.4531C210.227 24.6406 208.375 28.5781 207.062 33.2656C205.75 37.9531 205.094 43.3438 205.094 49.4375V56.0469C205.094 62.1875 205.75 67.625 207.062 72.3594C208.375 77.0469 210.25 81.0078 212.688 84.2422C215.172 87.4297 218.102 89.8438 221.477 91.4844C224.898 93.125 228.719 93.9453 232.938 93.9453C237.344 93.9453 241.258 93.125 244.68 91.4844C248.102 89.8438 250.984 87.4297 253.328 84.2422C255.719 81.0078 257.523 77.0469 258.742 72.3594C259.961 67.625 260.57 62.1875 260.57 56.0469ZM332.078 63.8516H304.727V52.8125H332.078C337.375 52.8125 341.664 51.9688 344.945 50.2812C348.227 48.5938 350.617 46.25 352.117 43.25C353.664 40.25 354.438 36.8281 354.438 32.9844C354.438 29.4688 353.664 26.1641 352.117 23.0703C350.617 19.9766 348.227 17.4922 344.945 15.6172C341.664 13.6953 337.375 12.7344 332.078 12.7344H307.891V104H294.32V1.625H332.078C339.812 1.625 346.352 2.96094 351.695 5.63281C357.039 8.30469 361.094 12.0078 363.859 16.7422C366.625 21.4297 368.008 26.7969 368.008 32.8438C368.008 39.4062 366.625 45.0078 363.859 49.6484C361.094 54.2891 357.039 57.8281 351.695 60.2656C346.352 62.6562 339.812 63.8516 332.078 63.8516ZM443.734 1.625H457.234V70.8828C457.234 78.5703 455.523 84.9688 452.102 90.0781C448.68 95.1875 444.133 99.0312 438.461 101.609C432.836 104.141 426.719 105.406 420.109 105.406C413.172 105.406 406.891 104.141 401.266 101.609C395.688 99.0312 391.258 95.1875 387.977 90.0781C384.742 84.9688 383.125 78.5703 383.125 70.8828V1.625H396.555V70.8828C396.555 76.2266 397.539 80.6328 399.508 84.1016C401.477 87.5703 404.219 90.1484 407.734 91.8359C411.297 93.5234 415.422 94.3672 420.109 94.3672C424.844 94.3672 428.969 93.5234 432.484 91.8359C436.047 90.1484 438.812 87.5703 440.781 84.1016C442.75 80.6328 443.734 76.2266 443.734 70.8828V1.625ZM516.297 63.8516H488.945V52.8125H516.297C521.594 52.8125 525.883 51.9688 529.164 50.2812C532.445 48.5938 534.836 46.25 536.336 43.25C537.883 40.25 538.656 36.8281 538.656 32.9844C538.656 29.4688 537.883 26.1641 536.336 23.0703C534.836 19.9766 532.445 17.4922 529.164 15.6172C525.883 13.6953 521.594 12.7344 516.297 12.7344H492.109V104H478.539V1.625H516.297C524.031 1.625 530.57 2.96094 535.914 5.63281C541.258 8.30469 545.312 12.0078 548.078 16.7422C550.844 21.4297 552.227 26.7969 552.227 32.8438C552.227 39.4062 550.844 45.0078 548.078 49.6484C545.312 54.2891 541.258 57.8281 535.914 60.2656C530.57 62.6562 524.031 63.8516 516.297 63.8516Z" fill="#373E4A"/>
<ellipse cx="233.5" cy="53.5" rx="17.5" ry="21.5" fill="#373E4A"/>
</svg>
